<?xml version="1.0" standalone="no"?>
<!DOCTYPE svg PUBLIC "-//W3C//DTD SVG 1.1//EN" "http://www.w3.org/Graphics/SVG/1.1/DTD/svg11.dtd">
<svg version="1.1" xmlns="http://www.w3.org/2000/svg" viewBox="0 0 79.39076491872765 77.3490649066548" width="238.17229475618296" height="232.0471947199644"><!-- svg-source:excalidraw --><metadata></metadata><defs><style class="style-fonts">
      </style></defs><g stroke-linecap="round" transform="translate(10 10) rotate(0 29.695382459363827 28.6745324533274)"><path d="M0 0 C14.2 0, 28.41 0, 59.39 0 M0 0 C14.83 0, 29.65 0, 59.39 0 M59.39 0 C59.39 21.65, 59.39 43.3, 59.39 57.35 M59.39 0 C59.39 17.57, 59.39 35.15, 59.39 57.35 M59.39 57.35 C45.08 57.35, 30.76 57.35, 0 57.35 M59.39 57.35 C42.88 57.35, 26.36 57.35, 0 57.35 M0 57.35 C0 41.38, 0 25.41, 0 0 M0 57.35 C0 40.96, 0 24.58, 0 0" stroke="#244af1" stroke-width="4" fill="none"></path></g><g stroke-linecap="round" transform="translate(20.5824028583952 18.487195536769377) rotate(0 4.067735139374122 8.059913186321523)"><path d="M8.14 8.06 C8.14 8.53, 8.11 9, 8.07 9.46 C8.03 9.92, 7.97 10.38, 7.89 10.82 C7.81 11.25, 7.71 11.69, 7.59 12.09 C7.47 12.49, 7.34 12.88, 7.18 13.24 C7.03 13.6, 6.86 13.93, 6.68 14.23 C6.5 14.53, 6.31 14.81, 6.1 15.04 C5.9 15.27, 5.68 15.47, 5.46 15.63 C5.24 15.79, 5.01 15.92, 4.77 16 C4.54 16.08, 4.3 16.12, 4.07 16.12 C3.83 16.12, 3.59 16.08, 3.36 16 C3.13 15.92, 2.9 15.79, 2.68 15.63 C2.46 15.47, 2.24 15.27, 2.03 15.04 C1.83 14.81, 1.63 14.53, 1.45 14.23 C1.27 13.93, 1.1 13.6, 0.95 13.24 C0.8 12.88, 0.66 12.49, 0.54 12.09 C0.43 11.69, 0.33 11.25, 0.25 10.82 C0.16 10.38, 0.1 9.92, 0.06 9.46 C0.02 9, 0 8.53, 0 8.06 C0 7.59, 0.02 7.12, 0.06 6.66 C0.1 6.2, 0.16 5.74, 0.25 5.3 C0.33 4.86, 0.43 4.43, 0.54 4.03 C0.66 3.63, 0.8 3.24, 0.95 2.88 C1.1 2.52, 1.27 2.19, 1.45 1.89 C1.63 1.59, 1.83 1.31, 2.03 1.08 C2.24 0.85, 2.46 0.65, 2.68 0.49 C2.9 0.33, 3.13 0.2, 3.36 0.12 C3.59 0.04, 3.83 0, 4.07 0 C4.3 0, 4.54 0.04, 4.77 0.12 C5.01 0.2, 5.24 0.33, 5.46 0.49 C5.68 0.65, 5.9 0.85, 6.1 1.08 C6.31 1.31, 6.5 1.59, 6.68 1.89 C6.86 2.19, 7.03 2.52, 7.18 2.88 C7.34 3.24, 7.47 3.63, 7.59 4.03 C7.71 4.43, 7.81 4.86, 7.89 5.3 C7.97 5.74, 8.03 6.2, 8.07 6.66 C8.11 7.12, 8.13 7.83, 8.14 8.06 C8.15 8.29, 8.15 7.83, 8.14 8.06" stroke="none" stroke-width="0" fill="#244af1"></path><path d="M8.14 8.06 C8.14 8.53, 8.11 9, 8.07 9.46 C8.03 9.92, 7.97 10.38, 7.89 10.82 C7.81 11.25, 7.71 11.69, 7.59 12.09 C7.47 12.49, 7.34 12.88, 7.18 13.24 C7.03 13.6, 6.86 13.93, 6.68 14.23 C6.5 14.53, 6.31 14.81, 6.1 15.04 C5.9 15.27, 5.68 15.47, 5.46 15.63 C5.24 15.79, 5.01 15.92, 4.77 16 C4.54 16.08, 4.3 16.12, 4.07 16.12 C3.83 16.12, 3.59 16.08, 3.36 16 C3.13 15.92, 2.9 15.79, 2.68 15.63 C2.46 15.47, 2.24 15.27, 2.03 15.04 C1.83 14.81, 1.63 14.53, 1.45 14.23 C1.27 13.93, 1.1 13.6, 0.95 13.24 C0.8 12.88, 0.66 12.49, 0.54 12.09 C0.43 11.69, 0.33 11.25, 0.25 10.82 C0.16 10.38, 0.1 9.92, 0.06 9.46 C0.02 9, 0 8.53, 0 8.06 C0 7.59, 0.02 7.12, 0.06 6.66 C0.1 6.2, 0.16 5.74, 0.25 5.3 C0.33 4.86, 0.43 4.43, 0.54 4.03 C0.66 3.63, 0.8 3.24, 0.95 2.88 C1.1 2.52, 1.27 2.19, 1.45 1.89 C1.63 1.59, 1.83 1.31, 2.03 1.08 C2.24 0.85, 2.46 0.65, 2.68 0.49 C2.9 0.33, 3.13 0.2, 3.36 0.12 C3.59 0.04, 3.83 0, 4.07 0 C4.3 0, 4.54 0.04, 4.77 0.12 C5.01 0.2, 5.24 0.33, 5.46 0.49 C5.68 0.65, 5.9 0.85, 6.1 1.08 C6.31 1.31, 6.5 1.59, 6.68 1.89 C6.86 2.19, 7.03 2.52, 7.18 2.88 C7.34 3.24, 7.47 3.63, 7.59 4.03 C7.71 4.43, 7.81 4.86, 7.89 5.3 C7.97 5.74, 8.03 6.2, 8.07 6.66 C8.11 7.12, 8.13 7.83, 8.14 8.06 C8.15 8.29, 8.15 7.83, 8.14 8.06" stroke="#244af1" stroke-width="4" fill="none"></path></g><g stroke-linecap="round" transform="translate(50.991857507322266 19.338677551790852) rotate(0 4.067735139374122 8.059913186321523)"><path d="M8.14 8.06 C8.14 8.53, 8.11 9, 8.07 9.46 C8.03 9.92, 7.97 10.38, 7.89 10.82 C7.81 11.25, 7.71 11.69, 7.59 12.09 C7.47 12.49, 7.34 12.88, 7.18 13.24 C7.03 13.6, 6.86 13.93, 6.68 14.23 C6.5 14.53, 6.31 14.81, 6.1 15.04 C5.9 15.27, 5.68 15.47, 5.46 15.63 C5.24 15.79, 5.01 15.92, 4.77 16 C4.54 16.08, 4.3 16.12, 4.07 16.12 C3.83 16.12, 3.59 16.08, 3.36 16 C3.13 15.92, 2.9 15.79, 2.68 15.63 C2.46 15.47, 2.24 15.27, 2.03 15.04 C1.83 14.81, 1.63 14.53, 1.45 14.23 C1.27 13.93, 1.1 13.6, 0.95 13.24 C0.8 12.88, 0.66 12.49, 0.54 12.09 C0.43 11.69, 0.33 11.25, 0.25 10.82 C0.16 10.38, 0.1 9.92, 0.06 9.46 C0.02 9, 0 8.53, 0 8.06 C0 7.59, 0.02 7.12, 0.06 6.66 C0.1 6.2, 0.16 5.74, 0.25 5.3 C0.33 4.86, 0.43 4.43, 0.54 4.03 C0.66 3.63, 0.8 3.24, 0.95 2.88 C1.1 2.52, 1.27 2.19, 1.45 1.89 C1.63 1.59, 1.83 1.31, 2.03 1.08 C2.24 0.85, 2.46 0.65, 2.68 0.49 C2.9 0.33, 3.13 0.2, 3.36 0.12 C3.59 0.04, 3.83 0, 4.07 0 C4.3 0, 4.54 0.04, 4.77 0.12 C5.01 0.2, 5.24 0.33, 5.46 0.49 C5.68 0.65, 5.9 0.85, 6.1 1.08 C6.31 1.31, 6.5 1.59, 6.68 1.89 C6.86 2.19, 7.03 2.52, 7.18 2.88 C7.34 3.24, 7.47 3.63, 7.59 4.03 C7.71 4.43, 7.81 4.86, 7.89 5.3 C7.97 5.74, 8.03 6.2, 8.07 6.66 C8.11 7.12, 8.13 7.83, 8.14 8.06 C8.15 8.29, 8.15 7.83, 8.14 8.06" stroke="none" stroke-width="0" fill="#244af1"></path><path d="M8.14 8.06 C8.14 8.53, 8.11 9, 8.07 9.46 C8.03 9.92, 7.97 10.38, 7.89 10.82 C7.81 11.25, 7.71 11.69, 7.59 12.09 C7.47 12.49, 7.34 12.88, 7.18 13.24 C7.03 13.6, 6.86 13.93, 6.68 14.23 C6.5 14.53, 6.31 14.81, 6.1 15.04 C5.9 15.27, 5.68 15.47, 5.46 15.63 C5.24 15.79, 5.01 15.92, 4.77 16 C4.54 16.08, 4.3 16.12, 4.07 16.12 C3.83 16.12, 3.59 16.08, 3.36 16 C3.13 15.92, 2.9 15.79, 2.68 15.63 C2.46 15.47, 2.24 15.27, 2.03 15.04 C1.83 14.81, 1.63 14.53, 1.45 14.23 C1.27 13.93, 1.1 13.6, 0.95 13.24 C0.8 12.88, 0.66 12.49, 0.54 12.09 C0.43 11.69, 0.33 11.25, 0.25 10.82 C0.16 10.38, 0.1 9.92, 0.06 9.46 C0.02 9, 0 8.53, 0 8.06 C0 7.59, 0.02 7.12, 0.06 6.66 C0.1 6.2, 0.16 5.74, 0.25 5.3 C0.33 4.86, 0.43 4.43, 0.54 4.03 C0.66 3.63, 0.8 3.24, 0.95 2.88 C1.1 2.52, 1.27 2.19, 1.45 1.89 C1.63 1.59, 1.83 1.31, 2.03 1.08 C2.24 0.85, 2.46 0.65, 2.68 0.49 C2.9 0.33, 3.13 0.2, 3.36 0.12 C3.59 0.04, 3.83 0, 4.07 0 C4.3 0, 4.54 0.04, 4.77 0.12 C5.01 0.2, 5.24 0.33, 5.46 0.49 C5.68 0.65, 5.9 0.85, 6.1 1.08 C6.31 1.31, 6.5 1.59, 6.68 1.89 C6.86 2.19, 7.03 2.52, 7.18 2.88 C7.34 3.24, 7.47 3.63, 7.59 4.03 C7.71 4.43, 7.81 4.86, 7.89 5.3 C7.97 5.74, 8.03 6.2, 8.07 6.66 C8.11 7.12, 8.13 7.83, 8.14 8.06 C8.15 8.29, 8.15 7.83, 8.14 8.06" stroke="#244af1" stroke-width="4" fill="none"></path></g></svg>